<mxfile host="65bd71144e">
    <diagram id="NaVdUdmBQZxV_IBvevQ4" name="执行上下文ECS">
        <mxGraphModel dx="974" dy="430" grid="0" gridSize="10" guides="1" tooltips="1" connect="1" arrows="1" fold="1" page="1" pageScale="1" pageWidth="827" pageHeight="1169" math="0" shadow="0">
            <root>
                <mxCell id="0"/>
                <mxCell id="1" parent="0"/>
                <mxCell id="2" value="ECS执行期上下文 " style="swimlane;" parent="1" vertex="1">
                    <mxGeometry x="45" y="50" width="215" height="350" as="geometry"/>
                </mxCell>
                <mxCell id="14" value="" style="rounded=1;whiteSpace=wrap;html=1;absoluteArcSize=1;arcSize=14;strokeWidth=2;" parent="2" vertex="1">
                    <mxGeometry x="10" y="206" width="197" height="133" as="geometry"/>
                </mxCell>
                <mxCell id="15" value="GEC全局执行上下文" style="text;html=1;align=center;verticalAlign=middle;resizable=0;points=[];autosize=1;strokeColor=none;fillColor=none;" parent="2" vertex="1">
                    <mxGeometry x="14" y="185" width="120" height="18" as="geometry"/>
                </mxCell>
                <mxCell id="16" value="执行前：&lt;br&gt;VO:GO（0x100）" style="rounded=0;whiteSpace=wrap;html=1;" parent="2" vertex="1">
                    <mxGeometry x="21" y="219" width="169" height="44" as="geometry"/>
                </mxCell>
                <mxCell id="18" value="" style="edgeStyle=elbowEdgeStyle;elbow=horizontal;endArrow=classic;html=1;" parent="2" target="12" edge="1">
                    <mxGeometry width="50" height="50" relative="1" as="geometry">
                        <mxPoint x="150" y="246" as="sourcePoint"/>
                        <mxPoint x="195" y="203" as="targetPoint"/>
                        <Array as="points">
                            <mxPoint x="233" y="70"/>
                        </Array>
                    </mxGeometry>
                </mxCell>
                <mxCell id="20" value="开始执行代码：&lt;br&gt;从上往下依次执行代码" style="rounded=0;whiteSpace=wrap;html=1;" parent="2" vertex="1">
                    <mxGeometry x="21" y="274" width="169" height="44" as="geometry"/>
                </mxCell>
                <mxCell id="12" value="" style="rounded=0;whiteSpace=wrap;html=1;" parent="1" vertex="1">
                    <mxGeometry x="359" y="56" width="475" height="338" as="geometry"/>
                </mxCell>
                <mxCell id="6" value="Heap 堆内存" style="text;html=1;strokeColor=none;fillColor=none;align=center;verticalAlign=middle;whiteSpace=wrap;rounded=0;" parent="1" vertex="1">
                    <mxGeometry x="396" y="62" width="77" height="30" as="geometry"/>
                </mxCell>
                <mxCell id="9" value="FunctionObject:0x200" style="swimlane;childLayout=stackLayout;horizontal=1;startSize=30;horizontalStack=0;rounded=1;fontSize=14;fontStyle=0;strokeWidth=2;resizeParent=0;resizeLast=1;shadow=0;dashed=0;align=center;" parent="1" vertex="1">
                    <mxGeometry x="648" y="133.5" width="167" height="185" as="geometry"/>
                </mxCell>
                <mxCell id="5" value="&lt;div style=&quot;text-align: justify&quot;&gt;&lt;span&gt;function foo(){&lt;/span&gt;&lt;/div&gt;&lt;div style=&quot;text-align: justify&quot;&gt;&lt;span&gt;var name='foo'&lt;/span&gt;&lt;/div&gt;&lt;div style=&quot;text-align: justify&quot;&gt;&lt;span&gt;console.log(name)&lt;/span&gt;&lt;/div&gt;&lt;div style=&quot;text-align: justify&quot;&gt;&lt;span&gt;}&lt;/span&gt;&lt;/div&gt;" style="rounded=0;whiteSpace=wrap;html=1;align=center;" parent="9" vertex="1">
                    <mxGeometry y="30" width="167" height="155" as="geometry"/>
                </mxCell>
                <mxCell id="7" value="GlobalObject:0x100" style="swimlane;childLayout=stackLayout;horizontal=1;startSize=30;horizontalStack=0;rounded=1;fontSize=14;fontStyle=0;strokeWidth=2;resizeParent=0;resizeLast=1;shadow=0;dashed=0;align=center;" parent="1" vertex="1">
                    <mxGeometry x="380" y="102" width="160" height="270" as="geometry"/>
                </mxCell>
                <mxCell id="8" value="+Date&#10;+Array&#10;+String&#10;+Number&#10;+setTimeout&#10;+window&#10;&#10;自定义属性&#10;name:undefined&#10;num1:undefined&#10;num2:undefined&#10;result:undefined&#10;foo:0x200（指向函数对象）&#10;" style="align=left;strokeColor=none;fillColor=none;spacingLeft=4;fontSize=12;verticalAlign=top;resizable=0;rotatable=0;part=1;" parent="7" vertex="1">
                    <mxGeometry y="30" width="160" height="240" as="geometry"/>
                </mxCell>
                <mxCell id="13" value="" style="endArrow=classic;html=1;entryX=-0.004;entryY=0.125;entryDx=0;entryDy=0;entryPerimeter=0;" parent="1" target="9" edge="1">
                    <mxGeometry width="50" height="50" relative="1" as="geometry">
                        <mxPoint x="540" y="315" as="sourcePoint"/>
                        <mxPoint x="627" y="183" as="targetPoint"/>
                        <Array as="points"/>
                    </mxGeometry>
                </mxCell>
            </root>
        </mxGraphModel>
    </diagram>
    <diagram id="semP26disFTAenmfTuYk" name="函数执行上下文FEC">
        <mxGraphModel dx="974" dy="830" grid="0" gridSize="10" guides="0" tooltips="1" connect="0" arrows="0" fold="1" page="0" pageScale="1" pageWidth="827" pageHeight="1169" math="0" shadow="0">
            <root>
                <mxCell id="K2bO2x3He-ZLr8xwoHA_-0"/>
                <mxCell id="K2bO2x3He-ZLr8xwoHA_-1" parent="K2bO2x3He-ZLr8xwoHA_-0"/>
                <mxCell id="mGsWiAlOZEeIE1XRzBOE-0" value="ECS执行期上下文 " style="swimlane;" parent="K2bO2x3He-ZLr8xwoHA_-1" vertex="1">
                    <mxGeometry x="45" y="22" width="215" height="390" as="geometry"/>
                </mxCell>
                <mxCell id="mGsWiAlOZEeIE1XRzBOE-1" value="" style="rounded=1;whiteSpace=wrap;html=1;absoluteArcSize=1;arcSize=14;strokeWidth=2;" parent="mGsWiAlOZEeIE1XRzBOE-0" vertex="1">
                    <mxGeometry x="9" y="247" width="197" height="133" as="geometry"/>
                </mxCell>
                <mxCell id="mGsWiAlOZEeIE1XRzBOE-2" value="GEC全局执行上下文" style="text;html=1;align=center;verticalAlign=middle;resizable=0;points=[];autosize=1;strokeColor=none;fillColor=none;" parent="mGsWiAlOZEeIE1XRzBOE-0" vertex="1">
                    <mxGeometry x="9" y="228" width="120" height="18" as="geometry"/>
                </mxCell>
                <mxCell id="mGsWiAlOZEeIE1XRzBOE-3" value="执行前：&lt;br&gt;VO:GO（0x100）" style="rounded=0;whiteSpace=wrap;html=1;" parent="mGsWiAlOZEeIE1XRzBOE-0" vertex="1">
                    <mxGeometry x="21" y="266" width="169" height="44" as="geometry"/>
                </mxCell>
                <mxCell id="mGsWiAlOZEeIE1XRzBOE-5" value="开始执行代码：&lt;br&gt;从上往下依次执行代码" style="rounded=0;whiteSpace=wrap;html=1;" parent="mGsWiAlOZEeIE1XRzBOE-0" vertex="1">
                    <mxGeometry x="19" y="325" width="169" height="44" as="geometry"/>
                </mxCell>
                <mxCell id="mGsWiAlOZEeIE1XRzBOE-6" value="&lt;br&gt;" style="rounded=0;whiteSpace=wrap;html=1;" parent="K2bO2x3He-ZLr8xwoHA_-1" vertex="1">
                    <mxGeometry x="306" y="-9" width="450" height="420" as="geometry"/>
                </mxCell>
                <mxCell id="mGsWiAlOZEeIE1XRzBOE-7" value="Heap 堆内存" style="text;html=1;strokeColor=none;fillColor=none;align=center;verticalAlign=middle;whiteSpace=wrap;rounded=0;" parent="K2bO2x3He-ZLr8xwoHA_-1" vertex="1">
                    <mxGeometry x="314" y="-11" width="77" height="30" as="geometry"/>
                </mxCell>
                <mxCell id="mGsWiAlOZEeIE1XRzBOE-8" value="FunctionObject:0x200" style="swimlane;childLayout=stackLayout;horizontal=1;startSize=30;horizontalStack=0;rounded=1;fontSize=14;fontStyle=0;strokeWidth=2;resizeParent=0;resizeLast=1;shadow=0;dashed=0;align=center;" parent="K2bO2x3He-ZLr8xwoHA_-1" vertex="1">
                    <mxGeometry x="559" y="125" width="167" height="185" as="geometry"/>
                </mxCell>
                <mxCell id="mGsWiAlOZEeIE1XRzBOE-9" value="&lt;div style=&quot;text-align: justify&quot;&gt;&lt;span&gt;function foo(){&lt;/span&gt;&lt;/div&gt;&lt;div style=&quot;text-align: justify&quot;&gt;&lt;span&gt;var name='foo'&lt;/span&gt;&lt;/div&gt;&lt;div style=&quot;text-align: justify&quot;&gt;&lt;span&gt;console.log(name)&lt;/span&gt;&lt;/div&gt;&lt;div style=&quot;text-align: justify&quot;&gt;&lt;span&gt;}&lt;/span&gt;&lt;/div&gt;" style="rounded=0;whiteSpace=wrap;html=1;align=center;" parent="mGsWiAlOZEeIE1XRzBOE-8" vertex="1">
                    <mxGeometry y="30" width="167" height="155" as="geometry"/>
                </mxCell>
                <mxCell id="mGsWiAlOZEeIE1XRzBOE-10" value="GlobalObject:0x100" style="swimlane;childLayout=stackLayout;horizontal=1;startSize=30;horizontalStack=0;rounded=1;fontSize=14;fontStyle=0;strokeWidth=2;resizeParent=0;resizeLast=1;shadow=0;dashed=0;align=center;" parent="K2bO2x3He-ZLr8xwoHA_-1" vertex="1">
                    <mxGeometry x="315" y="127" width="160" height="270" as="geometry"/>
                </mxCell>
                <mxCell id="mGsWiAlOZEeIE1XRzBOE-11" value="+Date&#10;+Array&#10;+String&#10;+Number&#10;+setTimeout&#10;+window&#10;&#10;自定义属性&#10;name:undefined   yang&#10;num1:undefined   20 &#10;num2:undefined   30&#10;result:undefined    50&#10;foo:0x200（指向函数对象）&#10;" style="align=left;strokeColor=none;fillColor=none;spacingLeft=4;fontSize=12;verticalAlign=top;resizable=0;rotatable=0;part=1;fontColor=#BDBDBD;shadow=1;" parent="mGsWiAlOZEeIE1XRzBOE-10" vertex="1">
                    <mxGeometry y="30" width="160" height="240" as="geometry"/>
                </mxCell>
                <mxCell id="mGsWiAlOZEeIE1XRzBOE-12" value="" style="endArrow=classic;html=1;exitX=1;exitY=0.75;exitDx=0;exitDy=0;" parent="K2bO2x3He-ZLr8xwoHA_-1" source="mGsWiAlOZEeIE1XRzBOE-11" edge="1">
                    <mxGeometry width="50" height="50" relative="1" as="geometry">
                        <mxPoint x="503" y="232.66666666666663" as="sourcePoint"/>
                        <mxPoint x="555" y="135" as="targetPoint"/>
                        <Array as="points">
                            <mxPoint x="555" y="135"/>
                        </Array>
                    </mxGeometry>
                </mxCell>
                <mxCell id="mGsWiAlOZEeIE1XRzBOE-4" value="" style="edgeStyle=elbowEdgeStyle;elbow=horizontal;endArrow=classic;html=1;" parent="K2bO2x3He-ZLr8xwoHA_-1" source="mGsWiAlOZEeIE1XRzBOE-3" target="mGsWiAlOZEeIE1XRzBOE-6" edge="1">
                    <mxGeometry width="50" height="50" relative="1" as="geometry">
                        <mxPoint x="195" y="268" as="sourcePoint"/>
                        <mxPoint x="240" y="225" as="targetPoint"/>
                        <Array as="points">
                            <mxPoint x="278" y="145"/>
                            <mxPoint x="278" y="92"/>
                        </Array>
                    </mxGeometry>
                </mxCell>
                <mxCell id="mGsWiAlOZEeIE1XRzBOE-14" value="" style="endArrow=none;html=1;fontColor=#BDBDBD;strokeColor=#FC0000;" parent="K2bO2x3He-ZLr8xwoHA_-1" edge="1">
                    <mxGeometry width="50" height="50" relative="1" as="geometry">
                        <mxPoint x="405" y="280" as="sourcePoint"/>
                        <mxPoint x="359" y="330" as="targetPoint"/>
                        <Array as="points">
                            <mxPoint x="387" y="299"/>
                            <mxPoint x="405" y="280"/>
                        </Array>
                    </mxGeometry>
                </mxCell>
                <mxCell id="mGsWiAlOZEeIE1XRzBOE-15" value="" style="endArrow=none;dashed=1;html=1;dashPattern=1 3;strokeWidth=2;fontColor=#BDBDBD;" parent="K2bO2x3He-ZLr8xwoHA_-1" target="mGsWiAlOZEeIE1XRzBOE-11" edge="1">
                    <mxGeometry width="50" height="50" relative="1" as="geometry">
                        <mxPoint x="506" y="372" as="sourcePoint"/>
                        <mxPoint x="556" y="331" as="targetPoint"/>
                    </mxGeometry>
                </mxCell>
                <mxCell id="mGsWiAlOZEeIE1XRzBOE-16" value="Text" style="text;html=1;resizable=0;autosize=1;align=center;verticalAlign=middle;points=[];fillColor=none;strokeColor=none;rounded=0;shadow=1;fontColor=#BDBDBD;" parent="K2bO2x3He-ZLr8xwoHA_-1" vertex="1">
                    <mxGeometry x="368" y="214" width="40" height="20" as="geometry"/>
                </mxCell>
                <mxCell id="mGsWiAlOZEeIE1XRzBOE-18" value="全局执行后，undefined重新赋值" style="text;html=1;strokeColor=none;fillColor=none;align=center;verticalAlign=middle;whiteSpace=wrap;rounded=0;shadow=1;fontColor=#BDBDBD;" parent="K2bO2x3He-ZLr8xwoHA_-1" vertex="1">
                    <mxGeometry x="514" y="359" width="183" height="30" as="geometry"/>
                </mxCell>
                <mxCell id="mGsWiAlOZEeIE1XRzBOE-19" value="" style="rounded=1;whiteSpace=wrap;html=1;absoluteArcSize=1;arcSize=14;strokeWidth=2;" parent="K2bO2x3He-ZLr8xwoHA_-1" vertex="1">
                    <mxGeometry x="54" y="103" width="197" height="133" as="geometry"/>
                </mxCell>
                <mxCell id="mGsWiAlOZEeIE1XRzBOE-20" value="FEC函数执行上下文" style="text;html=1;align=center;verticalAlign=middle;resizable=0;points=[];autosize=1;strokeColor=none;fillColor=none;" parent="K2bO2x3He-ZLr8xwoHA_-1" vertex="1">
                    <mxGeometry x="55" y="80" width="118" height="18" as="geometry"/>
                </mxCell>
                <mxCell id="mGsWiAlOZEeIE1XRzBOE-21" value="执行前：&lt;br&gt;VO:AO（0x300）" style="rounded=0;whiteSpace=wrap;html=1;" parent="K2bO2x3He-ZLr8xwoHA_-1" vertex="1">
                    <mxGeometry x="66" y="122" width="169" height="44" as="geometry"/>
                </mxCell>
                <mxCell id="mGsWiAlOZEeIE1XRzBOE-22" value="开始执行代码：&lt;br&gt;从上往下依次执行代码" style="rounded=0;whiteSpace=wrap;html=1;" parent="K2bO2x3He-ZLr8xwoHA_-1" vertex="1">
                    <mxGeometry x="64" y="181" width="169" height="44" as="geometry"/>
                </mxCell>
                <mxCell id="mGsWiAlOZEeIE1XRzBOE-23" value="AO:0x300" style="swimlane;childLayout=stackLayout;horizontal=1;startSize=30;horizontalStack=0;rounded=1;fontSize=14;fontStyle=0;strokeWidth=2;resizeParent=0;resizeLast=1;shadow=0;dashed=0;align=center;" parent="K2bO2x3He-ZLr8xwoHA_-1" vertex="1">
                    <mxGeometry x="316" y="21" width="150" height="100" as="geometry"/>
                </mxCell>
                <mxCell id="mGsWiAlOZEeIE1XRzBOE-24" value="&amp;nbsp; &amp;nbsp;name:undefined&amp;nbsp; &amp;nbsp;foo" style="rounded=0;whiteSpace=wrap;html=1;align=left;" parent="mGsWiAlOZEeIE1XRzBOE-23" vertex="1">
                    <mxGeometry y="30" width="150" height="70" as="geometry"/>
                </mxCell>
                <mxCell id="mGsWiAlOZEeIE1XRzBOE-25" value="" style="endArrow=none;html=1;fontColor=#BDBDBD;strokeColor=#FC0000;" parent="K2bO2x3He-ZLr8xwoHA_-1" edge="1">
                    <mxGeometry width="50" height="50" relative="1" as="geometry">
                        <mxPoint x="410" y="61" as="sourcePoint"/>
                        <mxPoint x="364" y="111" as="targetPoint"/>
                        <Array as="points">
                            <mxPoint x="392" y="80"/>
                            <mxPoint x="410" y="61"/>
                        </Array>
                    </mxGeometry>
                </mxCell>
                <mxCell id="mGsWiAlOZEeIE1XRzBOE-26" value="" style="edgeStyle=elbowEdgeStyle;elbow=horizontal;endArrow=classic;html=1;entryX=-0.002;entryY=0.163;entryDx=0;entryDy=0;entryPerimeter=0;" parent="K2bO2x3He-ZLr8xwoHA_-1" target="mGsWiAlOZEeIE1XRzBOE-23" edge="1">
                    <mxGeometry width="50" height="50" relative="1" as="geometry">
                        <mxPoint x="234" y="151" as="sourcePoint"/>
                        <mxPoint x="299" y="39" as="targetPoint"/>
                        <Array as="points">
                            <mxPoint x="280" y="37"/>
                            <mxPoint x="266" y="-32"/>
                            <mxPoint x="266" y="-85"/>
                        </Array>
                    </mxGeometry>
                </mxCell>
            </root>
        </mxGraphModel>
    </diagram>
</mxfile>